<?xml version="1.0" encoding="UTF-8" standalone="no"?>
<svg
   xmlns:svg="http://www.w3.org/2000/svg"
   xmlns="http://www.w3.org/2000/svg"
   xmlns:sodipodi="http://sodipodi.sourceforge.net/DTD/sodipodi-0.dtd"
   xmlns:inkscape="http://www.inkscape.org/namespaces/inkscape"
   sodipodi:docname="geer.svg"
   inkscape:version="1.1-dev (0267c6e, 2020-06-08)"
   id="svg6"
   version="1.1"
   viewBox="0 0 40 40"
   height="40mm"
   width="40mm">
  <defs
     id="defs2" />
  <sodipodi:namedview
     inkscape:window-maximized="1"
     inkscape:window-y="-9"
     inkscape:window-x="-9"
     inkscape:window-height="1001"
     inkscape:window-width="1920"
     width="40mm"
     showgrid="false"
     inkscape:current-layer="layer1"
     inkscape:document-units="mm"
     inkscape:cy="63.360087"
     inkscape:cx="74.169558"
     inkscape:zoom="3.959798"
     inkscape:pageshadow="2"
     inkscape:pageopacity="0.0"
     borderopacity="1.0"
     bordercolor="#666666"
     pagecolor="#ffffff"
     id="base" />
  <g
     id="layer1"
     inkscape:groupmode="layer"
     inkscape:label="Слой 1">
    <path
       transform="scale(0.26458333)"
       d="M 73.570312 15.933594 A 59.657047 59.657047 0 0 0 73.105469 15.958984 L 70.128906 30.496094 A 45.166929 45.166929 0 0 0 62.445312 32.033203 L 53.486328 19.439453 A 59.657047 59.657047 0 0 0 48.5625 21.478516 L 51.900391 36.625 A 45.166929 45.166929 0 0 0 45.527344 41.3125 L 31.6875 33.136719 A 59.657047 59.657047 0 0 0 28.257812 36.90625 L 37.863281 49.921875 A 45.166929 45.166929 0 0 0 34.025391 56.699219 L 17.703125 54.818359 A 59.657047 59.657047 0 0 0 16.185547 59.619141 L 30.628906 67.814453 A 45.166929 45.166929 0 0 0 29.919922 75.320312 L 14.175781 80.261719 A 59.657047 59.657047 0 0 0 14.814453 85.369141 L 31.449219 86.992188 A 45.166929 45.166929 0 0 0 33.886719 93.697266 L 21.542969 104.5918 A 59.657047 59.657047 0 0 0 24.384766 109.20117 L 40.210938 103.92773 A 45.166929 45.166929 0 0 0 44.789062 108.71484 L 38.0625 123.42969 A 59.657047 59.657047 0 0 0 42.851562 126.66797 L 54.914062 115.64258 A 45.166929 45.166929 0 0 0 60.611328 118.02148 L 60.453125 133.7793 A 59.657047 59.657047 0 0 0 66.541016 134.81445 L 72.849609 120.35938 A 45.166929 45.166929 0 0 0 75.085938 120.50586 A 45.166929 45.166929 0 0 0 78.689453 120.26953 L 84.689453 134.11914 A 59.657047 59.657047 0 0 0 91.082031 132.53125 L 90.970703 117.54102 A 45.166929 45.166929 0 0 0 96.142578 115.20508 L 106.83203 125.02539 A 59.657047 59.657047 0 0 0 112.29883 120.86328 L 106.38281 107.83789 A 45.166929 45.166929 0 0 0 110.22656 103.62109 L 123.54102 108.0957 A 59.657047 59.657047 0 0 0 127.01953 102.01953 L 116.69727 92.861328 A 45.166929 45.166929 0 0 0 118.63477 87.255859 L 132.22461 85.964844 A 59.657047 59.657047 0 0 0 133.03516 79.003906 L 120.22656 74.947266 A 45.166929 45.166929 0 0 0 119.7168 68.701172 L 131.65039 61.96875 A 59.657047 59.657047 0 0 0 129.72656 55.453125 L 116.2793 56.96875 A 45.166929 45.166929 0 0 0 113.0957 51.099609 L 121.38281 39.927734 A 59.657047 59.657047 0 0 0 117.22656 34.947266 L 105.34375 41.925781 A 45.166929 45.166929 0 0 0 99.695312 37.576172 L 102.8125 23.603516 A 59.657047 59.657047 0 0 0 97.355469 20.888672 L 89.060547 32.486328 A 45.166929 45.166929 0 0 0 81.720703 30.705078 L 78.783203 16.171875 A 59.657047 59.657047 0 0 0 73.570312 15.933594 z M 75.589844 57.181641 A 18.408238 16.281133 0 0 1 93.998047 73.462891 A 18.408238 16.281133 0 0 1 75.589844 89.744141 A 18.408238 16.281133 0 0 1 57.181641 73.462891 A 18.408238 16.281133 0 0 1 75.589844 57.181641 z "
       inkscape:transform-center-y="-1.8705131"
       inkscape:transform-center-x="-0.0077733533"
       style="fill:#868686;fill-opacity:1;fill-rule:evenodd;stroke:#000000;stroke-width:1.81795278;stroke-opacity:1;stroke-miterlimit:4;stroke-dasharray:none"
       id="path823" />
  </g>
</svg>
